<svg xmlns="http://www.w3.org/2000/svg" xmlns:xlink="http://www.w3.org/1999/xlink" width="874" zoomAndPan="magnify" viewBox="0 0 655.5 397.499983" height="530" preserveAspectRatio="xMidYMid meet" version="1.0"><defs><g/><clipPath id="b69979692a"><path d="M 0.160156 0 L 654.839844 0 L 654.839844 397 L 0.160156 397 Z M 0.160156 0 " clip-rule="nonzero"/></clipPath><clipPath id="9b6250c927"><path d="M 206 128 L 328 128 L 328 338.558594 L 206 338.558594 Z M 206 128 " clip-rule="nonzero"/></clipPath><clipPath id="e13cc46fc4"><path d="M 206 58.410156 L 448.667969 58.410156 L 448.667969 199 L 206 199 Z M 206 58.410156 " clip-rule="nonzero"/></clipPath><clipPath id="9e7c0e40d7"><path d="M 327 128 L 448.667969 128 L 448.667969 338.558594 L 327 338.558594 Z M 327 128 " clip-rule="nonzero"/></clipPath></defs><g clip-path="url(#b69979692a)"><path fill="#ffffff" d="M 0.160156 0 L 654.839844 0 L 654.839844 397 L 0.160156 397 Z M 0.160156 0 " fill-opacity="1" fill-rule="nonzero"/><path fill="#ffffff" d="M 0.160156 0 L 654.839844 0 L 654.839844 397 L 0.160156 397 Z M 0.160156 0 " fill-opacity="1" fill-rule="nonzero"/></g><g clip-path="url(#9b6250c927)"><path fill="#b8f4ef" d="M 327.34375 338.203125 L 327.671875 338.382812 L 327.34375 338.578125 L 206.601562 268.757812 L 206.207031 268.53125 L 206.207031 128.460938 L 206.601562 128.230469 L 327.34375 198.050781 L 327.671875 197.855469 L 327.722656 197.902344 L 327.34375 198.117188 Z M 327.34375 338.203125 " fill-opacity="1" fill-rule="nonzero"/></g><g clip-path="url(#e13cc46fc4)"><path fill="#5ed2e5" d="M 448.101562 128.230469 L 327.671875 197.855469 L 327.34375 198.050781 L 206.601562 128.230469 L 327.34375 58.410156 Z M 448.101562 128.230469 " fill-opacity="1" fill-rule="nonzero"/></g><g clip-path="url(#9e7c0e40d7)"><path fill="#117bbc" d="M 448.496094 128.460938 L 448.496094 268.53125 L 448.101562 268.757812 L 327.671875 338.382812 L 327.34375 338.203125 L 327.34375 198.117188 L 327.722656 197.902344 L 448.167969 128.265625 Z M 448.496094 128.460938 " fill-opacity="1" fill-rule="nonzero"/></g><g fill="#e80f0f" fill-opacity="1"><g transform="translate(226.454439, 131.356459)"><g><path d="M 13.734375 8.46875 C 11.140625 6.96875 9.15625 5.273438 7.78125 3.390625 C 6.414062 1.503906 5.679688 -0.472656 5.578125 -2.546875 C 5.472656 -4.617188 6.035156 -6.71875 7.265625 -8.84375 C 8.503906 -10.976562 10.050781 -12.519531 11.90625 -13.46875 C 13.757812 -14.414062 15.84375 -14.765625 18.15625 -14.515625 C 20.46875 -14.265625 22.921875 -13.390625 25.515625 -11.890625 C 28.140625 -10.367188 30.132812 -8.664062 31.5 -6.78125 C 32.863281 -4.90625 33.597656 -2.925781 33.703125 -0.84375 C 33.804688 1.226562 33.238281 3.332031 32 5.46875 C 30.769531 7.59375 29.226562 9.125 27.375 10.0625 C 25.519531 11.007812 23.4375 11.359375 21.125 11.109375 C 18.820312 10.867188 16.359375 9.988281 13.734375 8.46875 Z M 15.75 5 C 17.363281 5.9375 18.921875 6.515625 20.421875 6.734375 C 21.929688 6.953125 23.316406 6.769531 24.578125 6.1875 C 25.847656 5.601562 26.921875 4.550781 27.796875 3.03125 C 28.671875 1.53125 29.046875 0.0820312 28.921875 -1.3125 C 28.804688 -2.707031 28.273438 -4.003906 27.328125 -5.203125 C 26.390625 -6.398438 25.113281 -7.46875 23.5 -8.40625 C 21.914062 -9.320312 20.351562 -9.894531 18.8125 -10.125 C 17.28125 -10.363281 15.875 -10.1875 14.59375 -9.59375 C 13.320312 -9.007812 12.25 -7.96875 11.375 -6.46875 C 10.5 -4.945312 10.125 -3.488281 10.25 -2.09375 C 10.382812 -0.707031 10.9375 0.585938 11.90625 1.796875 C 12.882812 3.015625 14.164062 4.082031 15.75 5 Z M 15.75 5 "/></g></g></g><g fill="#e80f0f" fill-opacity="1"><g transform="translate(254.404853, 147.529039)"><g><path d="M 29.25 7.515625 C 28.15625 8.984375 26.820312 10.003906 25.25 10.578125 C 23.6875 11.148438 21.9375 11.265625 20 10.921875 C 18.070312 10.585938 16.003906 9.785156 13.796875 8.515625 C 11.960938 7.453125 10.410156 6.269531 9.140625 4.96875 C 7.867188 3.664062 6.925781 2.269531 6.3125 0.78125 C 5.707031 -0.695312 5.460938 -2.238281 5.578125 -3.84375 C 5.703125 -5.445312 6.257812 -7.097656 7.25 -8.796875 C 8.226562 -10.492188 9.382812 -11.800781 10.71875 -12.71875 C 12.0625 -13.644531 13.53125 -14.21875 15.125 -14.4375 C 16.71875 -14.65625 18.398438 -14.539062 20.171875 -14.09375 C 21.941406 -13.65625 23.742188 -12.90625 25.578125 -11.84375 C 27.785156 -10.570312 29.515625 -9.171875 30.765625 -7.640625 C 32.015625 -6.109375 32.78125 -4.515625 33.0625 -2.859375 C 33.34375 -1.203125 33.101562 0.46875 32.34375 2.15625 L 28.34375 -0.15625 C 28.570312 -1.144531 28.554688 -2.128906 28.296875 -3.109375 C 28.046875 -4.085938 27.53125 -5.015625 26.75 -5.890625 C 25.96875 -6.765625 24.90625 -7.585938 23.5625 -8.359375 C 21.914062 -9.316406 20.316406 -9.898438 18.765625 -10.109375 C 17.210938 -10.316406 15.804688 -10.117188 14.546875 -9.515625 C 13.296875 -8.921875 12.242188 -7.882812 11.390625 -6.40625 C 10.546875 -4.957031 10.175781 -3.539062 10.28125 -2.15625 C 10.394531 -0.769531 10.929688 0.535156 11.890625 1.765625 C 12.847656 3.003906 14.148438 4.101562 15.796875 5.0625 C 17.140625 5.832031 18.378906 6.332031 19.515625 6.5625 C 20.660156 6.789062 21.71875 6.78125 22.6875 6.53125 C 23.65625 6.289062 24.507812 5.847656 25.25 5.203125 Z M 29.25 7.515625 "/></g></g></g><g fill="#e80f0f" fill-opacity="1"><g transform="translate(281.175548, 163.019014)"><g><path d="M 7.84375 -1.15625 L 9.78125 -4.515625 L 22.75 2.984375 L 20.8125 6.34375 Z M 0.515625 0.296875 L 21.03125 -13.9375 L 25.390625 -11.421875 L 23.359375 13.515625 L 18.96875 10.984375 L 21.125 -11.3125 L 23.0625 -10.203125 L 4.875 2.8125 Z M 0.515625 0.296875 "/></g></g></g><g fill="#e80f0f" fill-opacity="1"><g transform="translate(305.042302, 176.82872)"><g><path d="M 24.859375 -11.734375 C 27.054688 -10.460938 28.738281 -9.140625 29.90625 -7.765625 C 31.070312 -6.398438 31.832031 -5.015625 32.1875 -3.609375 C 32.550781 -2.203125 32.582031 -0.804688 32.28125 0.578125 C 31.976562 1.960938 31.453125 3.300781 30.703125 4.59375 C 29.953125 5.882812 29.023438 7.003906 27.921875 7.953125 C 26.816406 8.898438 25.550781 9.570312 24.125 9.96875 C 22.707031 10.375 21.109375 10.421875 19.328125 10.109375 C 17.554688 9.796875 15.625 9.035156 13.53125 7.828125 L 2.328125 1.34375 L 13.65625 -18.21875 Z M 8.359375 0.21875 L 15.421875 4.3125 C 16.878906 5.15625 18.1875 5.679688 19.34375 5.890625 C 20.507812 6.097656 21.546875 6.054688 22.453125 5.765625 C 23.367188 5.484375 24.171875 5.03125 24.859375 4.40625 C 25.554688 3.78125 26.140625 3.054688 26.609375 2.234375 C 27.085938 1.398438 27.421875 0.539062 27.609375 -0.34375 C 27.796875 -1.226562 27.773438 -2.125 27.546875 -3.03125 C 27.328125 -3.9375 26.835938 -4.835938 26.078125 -5.734375 C 25.316406 -6.640625 24.207031 -7.515625 22.75 -8.359375 L 15.6875 -12.453125 Z M 8.359375 0.21875 "/></g></g></g></svg>